<svg width="80" height="90" viewBox="0 0 80 90" fill="none" xmlns="http://www.w3.org/2000/svg">
  <circle cx="50" cy="5" r="1.5" fill="#8EA0A8"/>
  <circle cx="56" cy="7" r="1.2" fill="#A8B8C0"/>
  <circle cx="44" cy="8" r="1.8" fill="#96A8B2"/>
  <circle cx="61" cy="10" r="1" fill="#B0BCC3"/>
  <rect x="38" y="12" width="4.5" height="3.8" rx=".8" fill="#8EA0A8"/>
  <rect x="44" y="11" width="5" height="4" rx=".8" fill="#3DB9C2"/>
  <rect x="50" y="12.5" width="4" height="3.5" rx=".8" fill="#96A8B2"/>
  <rect x="56" y="14" width="3.5" height="3" rx=".7" fill="#26A7B0" opacity=".6"/>
  <rect x="32" y="19" width="5.5" height="4.5" rx=".8" fill="#7A9098"/>
  <rect x="39" y="18.5" width="5.5" height="4.5" rx=".8" fill="#26A7B0"/>
  <rect x="46" y="19" width="5" height="4.2" rx=".8" fill="#8EA0A8"/>
  <rect x="53" y="20" width="4.5" height="3.8" rx=".8" fill="#3DB9C2"/>
  <rect x="59" y="21" width="3.5" height="3" rx=".7" fill="#96A8B2" opacity=".5"/>
  <rect x="26" y="26" width="6" height="5" rx="1" fill="#26A7B0"/>
  <rect x="34" y="25.5" width="6" height="5" rx="1" fill="#7A9098"/>
  <rect x="42" y="26" width="6" height="5" rx="1" fill="#26A7B0"/>
  <rect x="50" y="26.5" width="5.5" height="4.5" rx=".9" fill="#8EA0A8"/>
  <rect x="57" y="27.5" width="4.5" height="3.8" rx=".8" fill="#3DB9C2" opacity=".6"/>
  <rect x="22" y="33.5" width="6.5" height="5.2" rx="1" fill="#7A9098"/>
  <rect x="30" y="33" width="6.5" height="5.2" rx="1" fill="#26A7B0"/>
  <rect x="38" y="33.5" width="6.5" height="5.2" rx="1" fill="#7A9098"/>
  <rect x="46" y="34" width="6" height="5" rx="1" fill="#26A7B0"/>
  <rect x="54" y="35" width="5" height="4" rx=".9" fill="#8EA0A8" opacity=".5"/>
  <rect x="18" y="41" width="6.5" height="5.2" rx="1" fill="#26A7B0"/>
  <rect x="26" y="40.5" width="6.5" height="5.2" rx="1" fill="#8EA0A8"/>
  <rect x="34" y="41" width="6.5" height="5.2" rx="1" fill="#26A7B0"/>
  <rect x="42" y="41.5" width="6" height="5" rx="1" fill="#7A9098"/>
  <rect x="50" y="42" width="5" height="4.2" rx=".9" fill="#3DB9C2" opacity=".5"/>
  <rect x="15" y="48.5" width="6" height="5" rx="1" fill="#8EA0A8"/>
  <rect x="23" y="48" width="6" height="5" rx="1" fill="#26A7B0"/>
  <rect x="31" y="48.5" width="6" height="5" rx="1" fill="#7A9098"/>
  <rect x="39" y="49" width="5.5" height="4.5" rx=".9" fill="#26A7B0"/>
  <rect x="13" y="56" width="5.5" height="4.5" rx=".9" fill="#26A7B0"/>
  <rect x="20" y="55.5" width="5.5" height="4.5" rx=".9" fill="#8EA0A8"/>
  <rect x="27.5" y="56" width="5.5" height="4.5" rx=".9" fill="#26A7B0"/>
  <rect x="35" y="57" width="4.5" height="3.8" rx=".8" fill="#7A9098" opacity=".6"/>
  <rect x="16" y="63" width="5" height="4" rx=".8" fill="#7A9098"/>
  <rect x="23" y="62.5" width="5" height="4" rx=".8" fill="#26A7B0"/>
  <rect x="30" y="63.5" width="4.5" height="3.8" rx=".8" fill="#8EA0A8" opacity=".6"/>
  <rect x="19" y="69.5" width="4.5" height="3.5" rx=".7" fill="#26A7B0"/>
  <rect x="25.5" y="70" width="4" height="3.2" rx=".7" fill="#7A9098"/>
  <rect x="22" y="76" width="3.5" height="3" rx=".6" fill="#26A7B0" opacity=".7"/>
</svg>
